<svg version="1" xmlns="http://www.w3.org/2000/svg" width="840" height="840" viewBox="0 0 630.000000 630.000000"><path d="M242.8 55.6c-.2.1-3.2.5-6.8.8-27.6 2.5-57.4 12.2-80.5 26.3-26.8 16.2-50.4 40.8-62.6 65.4-8.7 17.5-13 36-13.2 57.4-.1 11.7.8 27.9 1.7 29.4.2.3.7 2.8 1 5.6.4 2.7 1.5 9.9 2.6 16 1 6 2.2 12.7 2.5 14.9.3 2.1.8 4.3 1.2 4.8 2.3 3.8-3.5-1.9-15.9-15.7-23.8-26.4-30.1-30.9-42.9-30.9-8.3 0-13 2.3-18.6 9.2-5 6.2-6.5 10.8-6.9 22.3-.2 7.8 0 9.3 2.5 14.5 2.8 5.9 12 18.7 18.1 25.4 12.1 13.2 38.9 39.3 56.5 55.1 11.7 10.6 30.7 24.1 50.7 36.1l10.7 6.4-4.7 6c-10.2 12.7-13.9 20.5-19.1 40.5-2.2 8.5-5.6 19.7-7.6 24.9-6.7 17.5-14.1 42.3-16 54-.3 1.9-.7 4.6-1 6-.2 1.4-.7 4.5-1 7-.9 6.3-1.7 7.4-12.6 18.1-9.2 9-12 13.3-10.4 15.9 1.2 1.9 6.5 4.1 11.3 4.5 2.6.3 6.3.7 8.2 1 10.4 1.5 17.9 2 31 2 16.5 0 24.1-.9 27.9-3.1 2.5-1.5 11.2-12.8 31.7-40.9 10.1-13.9 11.9-15.2 18.2-13.9 2 .4 4.4.8 5.2.9.8.1 4.1.5 7.3.9 3.2.5 11.3 1 18 1.1 6.7.2 12.5.3 12.8.4.4 0 2.6 1.8 5 3.8 10.8 9.4 24.1 21.2 31.9 28.3 16.4 15.1 20.1 16.8 34.7 16.8 21.9 0 40.6-7 45.7-17.1 2-4 .7-7.5-5.7-16.1-4.1-5.5-5.2-7.5-4.4-8.7.7-1.1.2-3.5-1.7-8.3-6.5-16.1-16.7-30.7-26.4-37.7-6-4.2-8.9-4.8-12.7-2.3-2.3 1.5-2.4 1.4-3.9-1.4-1.6-3.1-14.3-39.7-15.6-44.9-.4-1.8-.6-3.4-.3-3.6.2-.3 13.2 9.8 28.9 22.4 32.1 25.7 29.4 24.3 48.4 24.3 17.5-.1 25.8-1.4 35.6-5.9 7.7-3.5 11.4-7.8 11.4-13.1 0-3.8-3.7-11.2-6-11.9-3.5-1.1-3-3.5 1.9-10.3 6.5-8.9 9.1-14.4 9.1-18.8 0-15.3-21.3-16-40.1-1.2-2 1.5-4.1 2.8-4.6 2.8s-3.8-2.8-7.4-6.2c-14-13.3-27.6-25.5-40.4-35.8-9.8-7.9-10-8.1-11.5-15-.7-3-3.7-10.1-6.6-15.8-5.8-10.9-6.2-12.2-4-12.2 2.4 0 22.5-8.8 33.6-14.6 24-12.8 47.4-30.6 59.9-45.8 3.8-4.6 12.1-17.8 12.1-19.1 0-.7.7-1.8 1.5-2.5s1.5-2.3 1.5-3.6c0-1.2.4-2.5.8-2.8.8-.5 3.6-9.2 6.2-19.4.6-2.3 1.7-4.2 2.4-4.2 1.8 0 23 7.2 29.6 10.1 27.1 11.7 49.4 28.1 63 46 6.8 9.1 14.4 23.8 16.2 31.7.7 2.9 1.6 5.2 1.9 5.2 1.3 0 11.8-7.7 16.6-12 14-12.9 24.6-31.7 26.7-47.2.9-6.9-1.7-11.7-13.9-24.6C542.6 213 511.4 198 478 193c-4.1-.6-8.8-1.3-10.5-1.6-6.3-.9-16.5-1.4-31-1.4-17.2 0-17.3-.2-4-6.8 10.1-5.1 25.3-9.7 37.5-11.6 8.7-1.3 34.2-1.5 41-.3 1.4.2 4.5.7 7 1.1 11.3 1.9 31.9 8 43 12.8 2.5 1.1 9.6 4.5 15.8 7.5 6.2 3.1 11.4 5.4 11.6 5.2.3-.4 5-13.7 14.1-39.4 2.3-6.6 8.8-24.6 14.4-40.1C622.4 103 627 90.1 627 89.8c0-3.5-57.6-4.6-74.5-1.4-1.1.2-4.2.7-7 1-9.4 1.3-35.9 7.8-46 11.3-30 10.4-55.7 23.8-80.2 41.9-4 3-7.5 5.4-7.8 5.4-.3 0-4.8-6.5-10-14.4-14.1-21.5-20.4-29-34.3-40.6-10.5-8.8-22.3-16.3-34.4-21.9-8.4-3.9-24.2-9.6-28.8-10.4-1.4-.3-4.3-1-6.5-1.5-3.8-1-6-1.4-18.5-3.2-5-.7-35.6-1.1-36.2-.4zM101.7 218.2c-.3.7-.5.2-.5-1.2s.2-1.9.5-1.3c.2.7.2 1.9 0 2.5z"/></svg>
